<svg xmlns="http://www.w3.org/2000/svg" width="179.6288604736328" height="300.35321044921875" viewBox="10.237075805664062 -49.84927749633789 179.6288604736328 300.35321044921875"><title>Neo4j Graph Visualization</title><desc>Created using Neo4j (http://www.neo4j.com/)</desc><g class="layer relationships"><g class="relationship" transform="translate(130.0049487084534 214.00395384730143) rotate(225.00596445697443)"><path class="outline" fill="#A5ABB6" stroke="none" d="M 27.89582562299426,-16.683012701892217 L 28.39582562299426,-15.816987298107778 A 56.69966531724484 56.69966531724484 0 0 1 45.63248795721231,-22.313542254667233 L 45.43648732365964,-23.294146023600923 A 57.69966531724484 57.69966531724484 0 0 0 27.89582562299426,-16.683012701892217 Z M 64.84095936756741,-23.842591560509 L 64.70065870825785,-22.852482614484728 A 56.69966531724484 56.69966531724484 0 0 1 82.2767466086118,-17.339870815484204 L 80.92588740067059,-14.661218281033266 L 88.75207905698753,-14.634308086029854 L 84.07789221920008,-20.91140752808545 L 82.72703301125887,-18.232754993634515 A 57.69966531724484 57.69966531724484 0 0 0 64.84095936756741,-23.842591560509"/><text text-anchor="middle" pointer-events="none" font-size="8px" fill="#000000" x="55.12961954995053" y="-20.890468866807815" transform="rotate(180 55.12961954995053 -23.890468866807815)" font-family="sans-serif">trek</text></g><g class="relationship" transform="translate(46.737076394629646 130.71874345538905) rotate(330.0792986022038)"><path class="outline" fill="#A5ABB6" stroke="none" d="M 27.89582562299426,16.683012701892217 L 28.39582562299426,15.816987298107778 A 62.137875440131346 62.137875440131346 0 0 0 48.251395117110974,23.121730587001366 L 48.070935644582775,24.10531300793763 A 63.137875440131346 63.137875440131346 0 0 1 27.89582562299426,16.683012701892217 Z M 67.47679454383812,24.631468031618276 L 67.34989716021654,23.639552181341656 A 62.137875440131346 62.137875440131346 0 0 0 87.57211443598493,17.4214461269271 L 86.21509904591068,14.745907072623906 L 94.04120812770475,14.701000059137716 L 89.38146828941726,20.98883153266469 L 88.024452899343,18.313292478361497 A 63.137875440131346 63.137875440131346 0 0 1 67.47679454383812,24.631468031618276"/><text text-anchor="middle" pointer-events="none" font-size="8px" fill="#000000" x="57.76707370076214" y="27.61887339470183" font-family="sans-serif">trek</text></g><g class="relationship" transform="translate(153.3659369307527 69.35315401713791) rotate(224.75941131292194)"><path class="outline" fill="#A5ABB6" stroke="none" d="M 32.5 0.5 L 45.5585955583915 0.5 L 45.5585955583915 -0.5 L 32.5 -0.5 Z M 64.8945330583915 0.5 L 77.953128616783 0.5 L 77.953128616783 3.5 L 84.953128616783 0 L 77.953128616783 -3.5 L 77.953128616783 -0.5 L 64.8945330583915 -0.5 Z"/><text text-anchor="middle" pointer-events="none" font-size="8px" fill="#000000" x="55.2265643083915" y="3" transform="rotate(180 55.2265643083915 0)" font-family="sans-serif">trek</text></g><g class="relationship" transform="translate(46.737076394629646 130.71874345538905) rotate(330.0792986022038)"><path class="outline" fill="#A5ABB6" stroke="none" d="M 32.5 0.5 L 47.00724789966135 0.5 L 47.00724789966135 -0.5 L 32.5 -0.5 Z M 69.01896664966135 0.5 L 83.5262145493227 0.5 L 83.5262145493227 3.5 L 90.5262145493227 0 L 83.5262145493227 -3.5 L 83.5262145493227 -0.5 L 69.01896664966135 -0.5 Z"/><text text-anchor="middle" pointer-events="none" font-size="8px" fill="#000000" x="58.01310727466135" y="3" font-family="sans-serif">road</text></g><g class="relationship" transform="translate(130.0049487084534 214.00395384730143) rotate(225.00596445697443)"><path class="outline" fill="#A5ABB6" stroke="none" d="M 32.5 0.5 L 44.37954804843635 0.5 L 44.37954804843635 -0.5 L 32.5 -0.5 Z M 66.39126679843635 0.5 L 78.2708148468727 0.5 L 78.2708148468727 3.5 L 85.2708148468727 0 L 78.2708148468727 -3.5 L 78.2708148468727 -0.5 L 66.39126679843635 -0.5 Z"/><text text-anchor="middle" pointer-events="none" font-size="8px" fill="#000000" x="55.38540742343635" y="3" transform="rotate(180 55.38540742343635 0)" font-family="sans-serif">road</text></g><g class="relationship" transform="translate(130.0049487084534 214.00395384730143) rotate(225.00596445697443)"><path class="outline" fill="#A5ABB6" stroke="none" d="M 27.89582562299426,16.683012701892217 L 28.39582562299426,15.816987298107778 A 56.69966531724484 56.69966531724484 0 0 0 32.881659370376134,18.14671562706095 L 32.46077507101181,19.053829956431066 A 57.69966531724484 57.69966531724484 0 0 1 27.89582562299426,16.683012701892217 Z M 78.03546114672902,20.341947103738953 L 77.66648495340006,19.412508257576135 A 56.69966531724484 56.69966531724484 0 0 0 82.2767466086118,17.339870815484204 L 80.92588740067059,14.661218281033266 L 88.75207905698753,14.634308086029854 L 84.07789221920008,20.91140752808545 L 82.72703301125887,18.232754993634515 A 57.69966531724484 57.69966531724484 0 0 1 78.03546114672902,20.341947103738953"/><text text-anchor="middle" pointer-events="none" font-size="8px" fill="#000000" x="55.12961954995053" y="26.890468866807815" transform="rotate(180 55.12961954995053 23.890468866807815)" font-family="sans-serif">twowheeler</text></g><g class="relationship" transform="translate(46.737076394629646 130.71874345538905) rotate(330.0792986022038)"><path class="outline" fill="#A5ABB6" stroke="none" d="M 27.89582562299426,-16.683012701892217 L 28.39582562299426,-15.816987298107778 A 62.137875440131346 62.137875440131346 0 0 1 35.381241807621564,-19.284891607115156 L 34.99365981572288,-20.20672684160983 A 63.137875440131346 63.137875440131346 0 0 0 27.89582562299426,-16.683012701892217 Z M 80.74610864207696,-21.447222349726815 L 80.40904716905992,-20.50573970867198 A 62.137875440131346 62.137875440131346 0 0 1 87.57211443598493,-17.4214461269271 L 86.21509904591068,-14.745907072623906 L 94.04120812770475,-14.701000059137716 L 89.38146828941726,-20.98883153266469 L 88.024452899343,-18.313292478361497 A 63.137875440131346 63.137875440131346 0 0 0 80.74610864207696,-21.447222349726815"/><text text-anchor="middle" pointer-events="none" font-size="8px" fill="#000000" x="57.76707370076212" y="-21.61887339470183" font-family="sans-serif">twowheeler</text></g></g><g class="layer nodes"><g class="node" transform="translate(130.0049487084534,214.00395384730143)"><circle class="outline" cx="0" cy="0" r="32.5" fill="#FB95AF" stroke="#E0849B" stroke-width="2px"/><text text-anchor="middle" pointer-events="none" font-family="sans-serif" dy="2.03125" font-size="32.5" fill="#FFFFFF"/><text text-anchor="middle" pointer-events="none" y="5" font-size="10px" fill="#FFFFFF" font-family="sans-serif"> Tumbling</text></g><g class="node" transform="translate(46.737076394629646,130.71874345538905)"><circle class="outline" cx="0" cy="0" r="32.5" fill="#FB95AF" stroke="#E0849B" stroke-width="2px"/><text text-anchor="middle" pointer-events="none" font-family="sans-serif" dy="2.03125" font-size="32.5" fill="#FFFFFF"/><text text-anchor="middle" pointer-events="none" y="5" font-size="10px" fill="#FFFFFF" font-family="sans-serif"> Gairibus</text></g><g class="node" transform="translate(153.3659369307527,69.35315401713791)"><circle class="outline" cx="0" cy="0" r="32.5" fill="#FB95AF" stroke="#E0849B" stroke-width="2px"/><text text-anchor="middle" pointer-events="none" font-family="sans-serif" dy="2.03125" font-size="32.5" fill="#FFFFFF"/><text text-anchor="middle" pointer-events="none" y="5" font-size="10px" fill="#FFFFFF" font-family="sans-serif"> BhikeBhanja</text></g><g class="node" transform="translate(69.96602610973376,-13.34927821382286)"><circle class="outline" cx="0" cy="0" r="32.5" fill="#FFD86E" stroke="#EDBA39" stroke-width="2px"/><text text-anchor="middle" pointer-events="none" font-family="sans-serif" dy="2.03125" font-size="32.5" fill="#604A0E"/><text text-anchor="middle" pointer-events="none" y="5" font-size="10px" fill="#604A0E" font-family="sans-serif"> Sandakphu</text></g></g></svg>