<svg xmlns="http://www.w3.org/2000/svg" width="437.5968017578125" height="405.356689453125" viewBox="-106.90251159667969 -117.2521743774414 437.5968017578125 405.356689453125"><title>Neo4j Graph Visualization</title><desc>Created using Neo4j (http://www.neo4j.com/)</desc><g class="layer relationships"><g class="relationship" transform="translate(90.62044783083809 259.10452348605884) rotate(354.450382953279)"><path class="outline" fill="#A5ABB6" stroke="none" d="M 24.018736134675446,-6.953439040707552 L 24.277555179777966,-5.987513214418485 A 107.20497711473183 107.20497711473183 0 0 1 39.24898501008281,-8.876519915871043 L 39.12981834151391,-9.869394180368914 A 108.20497711473183 108.20497711473183 0 0 0 24.018736134675446,-6.953439040707552 Z M 58.520894725937296,-10.445228034312848 L 58.460854514180696,-9.447032075108325 A 107.20497711473183 107.20497711473183 0 0 1 73.57733440388864,-7.451510431819401 L 72.97419759073568,-4.512764783652535 L 80.53493038513683,-6.533982142490322 L 74.38151682142592,-11.369837962708559 L 73.77838000827296,-8.43109231454169 A 108.20497711473183 108.20497711473183 0 0 0 58.520894725937296,-10.445228034312848"/><text text-anchor="middle" pointer-events="none" font-size="8px" fill="#000000" x="48.82726700983224" y="-7.092976251269604" font-family="sans-serif">trek</text></g><g class="relationship" transform="translate(202.46508521184842 248.237348316609) rotate(317.0090777601214)"><path class="outline" fill="#A5ABB6" stroke="none" d="M 27.89582562299426,-16.683012701892217 L 28.39582562299426,-15.816987298107778 A 64.5946944045938 64.5946944045938 0 0 1 49.43794115418794,-23.482899659418806 L 49.26369725111123,-24.46760218416452 A 65.5946944045938 65.5946944045938 0 0 0 27.89582562299426,-16.683012701892217 Z M 68.66972589634669,-24.984240170225164 L 68.54812226447586,-23.99166142941121 A 64.5946944045938 64.5946944045938 0 0 1 89.96831448576701,-17.456204019073233 L 88.60867611622344,-14.78199693957006 L 96.43473739953167,-14.729415670055412 L 91.78116564515845,-21.021813458410794 L 90.42152727561488,-18.34760637890762 A 65.5946944045938 65.5946944045938 0 0 0 68.66972589634669,-24.984240170225164"/><text text-anchor="middle" pointer-events="none" font-size="8px" fill="#000000" x="58.96079981767761" y="-21.9479793888857" font-family="sans-serif">trek</text></g><g class="relationship" transform="translate(294.19427522675505 162.7256619675409) rotate(233.87042136880967)"><path class="outline" fill="#A5ABB6" stroke="none" d="M 27.89582562299426,16.683012701892217 L 28.39582562299426,15.816987298107778 A 63.61001568157188 63.61001568157188 0 0 0 48.96214560796712,23.338410111573495 L 48.78546450302803,24.32267825956849 A 64.61001568157188 64.61001568157188 0 0 1 27.89582562299426,16.683012701892217 Z M 68.19145244045043,24.843091066130512 L 68.06777782294142,23.850768241146625 A 63.61001568157188 63.61001568157188 0 0 0 89.00765415980739,17.44242228762825 L 87.6490558139007,14.7676866867698 L 95.47513695279488,14.718148747322402 L 90.81911862101629,21.00873642210619 L 89.4605202751096,18.334000821247738 A 64.61001568157188 64.61001568157188 0 0 1 68.19145244045043,24.843091066130512"/><text text-anchor="middle" pointer-events="none" font-size="8px" fill="#000000" x="58.482205023711956" y="27.816073268999162" transform="rotate(180 58.482205023711956 24.816073268999162)" font-family="sans-serif">trek</text></g><g class="relationship" transform="translate(220.81603907372536 62.20802569522376) rotate(218.81368592347872)"><path class="outline" fill="#A5ABB6" stroke="none" d="M 32.5 0.5 L 50.75298326434993 0.5 L 50.75298326434993 -0.5 L 32.5 -0.5 Z M 70.08892076434992 0.5 L 88.34190402869986 0.5 L 88.34190402869986 3.5 L 95.34190402869986 0 L 88.34190402869986 -3.5 L 88.34190402869986 -0.5 L 70.08892076434992 -0.5 Z"/><text text-anchor="middle" pointer-events="none" font-size="8px" fill="#000000" x="60.42095201434993" y="3" transform="rotate(180 60.42095201434993 0)" font-family="sans-serif">trek</text></g><g class="relationship" transform="translate(90.62044783083809 259.10452348605884) rotate(354.450382953279)"><path class="outline" fill="#A5ABB6" stroke="none" d="M 24.018736134675446,6.953439040707552 L 24.277555179777966,5.987513214418485 A 107.20497711473183 107.20497711473183 0 0 0 37.927814096417755,8.709620267692202 L 37.79632364448336,9.700937704767767 A 108.20497711473183 108.20497711473183 0 0 1 24.018736134675446,6.953439040707552 Z M 59.8620357234159,10.356197050589103 L 59.789601063333166,9.358823890724295 A 107.20497711473183 107.20497711473183 0 0 0 73.57733440388864,7.451510431819401 L 72.97419759073568,4.512764783652535 L 80.53493038513683,6.533982142490322 L 74.38151682142592,11.369837962708559 L 73.77838000827296,8.43109231454169 A 108.20497711473183 108.20497711473183 0 0 1 59.8620357234159,10.356197050589103"/><text text-anchor="middle" pointer-events="none" font-size="8px" fill="#000000" x="48.82726700983227" y="13.092976251269604" font-family="sans-serif">road</text></g><g class="relationship" transform="translate(202.46508521184842 248.237348316609) rotate(317.0090777601214)"><path class="outline" fill="#A5ABB6" stroke="none" d="M 32.5 0.5 L 48.196797672074666 0.5 L 48.196797672074666 -0.5 L 32.5 -0.5 Z M 70.20851642207467 0.5 L 85.90531409414933 0.5 L 85.90531409414933 3.5 L 92.90531409414933 0 L 85.90531409414933 -3.5 L 85.90531409414933 -0.5 L 70.20851642207467 -0.5 Z"/><text text-anchor="middle" pointer-events="none" font-size="8px" fill="#000000" x="59.202657047074666" y="3" font-family="sans-serif">road</text></g><g class="relationship" transform="translate(202.46508521184842 248.237348316609) rotate(317.0090777601214)"><path class="outline" fill="#A5ABB6" stroke="none" d="M 27.89582562299426,16.683012701892217 L 28.39582562299426,15.816987298107778 A 64.5946944045938 64.5946944045938 0 0 0 36.5227821218939,19.778484181639136 L 36.14859673521177,20.70583810350152 A 65.5946944045938 65.5946944045938 0 0 1 27.89582562299426,16.683012701892217 Z M 81.96640230715417,21.925624966086545 L 81.64208904256836,20.979675228302504 A 64.5946944045938 64.5946944045938 0 0 0 89.96831448576701,17.456204019073233 L 88.60867611622344,14.78199693957006 L 96.43473739953167,14.729415670055412 L 91.78116564515845,21.021813458410794 L 90.42152727561488,18.34760637890762 A 65.5946944045938 65.5946944045938 0 0 1 81.96640230715417,21.925624966086545"/><text text-anchor="middle" pointer-events="none" font-size="8px" fill="#000000" x="58.96079981767759" y="27.9479793888857" font-family="sans-serif">twowheeler</text></g><g class="relationship" transform="translate(294.19427522675505 162.7256619675409) rotate(233.87042136880967)"><path class="outline" fill="#A5ABB6" stroke="none" d="M 32.5 0.5 L 35.49329777271407 0.5 L 35.49329777271407 -0.5 L 32.5 -0.5 Z M 81.95814152271407 0.5 L 84.95143929542814 0.5 L 84.95143929542814 3.5 L 91.95143929542814 0 L 84.95143929542814 -3.5 L 84.95143929542814 -0.5 L 81.95814152271407 -0.5 Z"/><text text-anchor="middle" pointer-events="none" font-size="8px" fill="#000000" x="58.72571964771407" y="3" transform="rotate(180 58.72571964771407 0)" font-family="sans-serif">twowheeler</text></g><g class="relationship" transform="translate(294.19427522675505 162.7256619675409) rotate(233.87042136880967)"><path class="outline" fill="#A5ABB6" stroke="none" d="M 27.89582562299426,-16.683012701892217 L 28.39582562299426,-15.816987298107778 A 63.61001568157188 63.61001568157188 0 0 1 47.658114639225694,-23.090257966767915 L 47.460933131091146,-24.070624965829893 A 64.61001568157188 64.61001568157188 0 0 0 27.89582562299426,-16.683012701892217 Z M 69.52758906061365,-24.662389238834308 L 69.38323441995236,-23.67286322213765 A 63.61001568157188 63.61001568157188 0 0 1 89.00765415980739,-17.44242228762825 L 87.6490558139007,-14.7676866867698 L 95.47513695279488,-14.718148747322402 L 90.81911862101629,-21.00873642210619 L 89.4605202751096,-18.334000821247738 A 64.61001568157188 64.61001568157188 0 0 0 69.52758906061365,-24.662389238834308"/><text text-anchor="middle" pointer-events="none" font-size="8px" fill="#000000" x="58.482205023711934" y="-21.816073268999162" transform="rotate(180 58.482205023711934 -24.816073268999162)" font-family="sans-serif">road</text></g><g class="relationship" transform="translate(90.62044783083809 259.10452348605884) rotate(291.1675702625813)"><path class="outline" fill="#A5ABB6" stroke="none" d="M 21.40063509461097,12.933012701892217 L 21.90063509461097,12.06698729810778 A 68.86176119249058 68.86176119249058 0 0 0 24.923922160189935,13.713129799191456 L 24.46782587414125,14.60306023346854 A 69.86176119249058 69.86176119249058 0 0 1 21.40063509461097,12.933012701892217 Z M 84.58333547475938,16.32539974338568 L 84.17893943175008,15.4108157721734 A 68.86176119249058 68.86176119249058 0 0 0 87.2915154834807,13.940468827753817 L 85.94272628945697,11.260773376758529 L 93.76893640147365,11.239909950197681 L 89.08990107551233,17.513396095747535 L 87.7411118814886,14.833700644752247 A 69.86176119249058 69.86176119249058 0 0 1 84.58333547475938,16.32539974338568"/><text text-anchor="middle" pointer-events="none" font-size="8px" fill="#000000" x="54.34508155023494" y="24.764263618378862" font-family="sans-serif">PublicTransport</text></g><g class="relationship" transform="translate(132.54369082157277 150.83823405435348) rotate(314.8840952544159)"><path class="outline" fill="#A5ABB6" stroke="none" d="M 25 0.5 L 45.62665791714874 0.5 L 45.62665791714874 -0.5 L 25 -0.5 Z M 64.96259541714875 0.5 L 85.58925333429748 0.5 L 85.58925333429748 3.5 L 92.58925333429748 0 L 85.58925333429748 -3.5 L 85.58925333429748 -0.5 L 64.96259541714875 -0.5 Z"/><text text-anchor="middle" pointer-events="none" font-size="8px" fill="#000000" x="55.29462666714874" y="3" font-family="sans-serif">trek</text></g><g class="relationship" transform="translate(90.62044783083809 259.10452348605884) rotate(291.1675702625813)"><path class="outline" fill="#A5ABB6" stroke="none" d="M 25 0.5 L 43.5440065382172 0.5 L 43.5440065382172 -0.5 L 25 -0.5 Z M 65.55572528821719 0.5 L 84.0997318264344 0.5 L 84.0997318264344 3.5 L 91.0997318264344 0 L 84.0997318264344 -3.5 L 84.0997318264344 -0.5 L 65.55572528821719 -0.5 Z"/><text text-anchor="middle" pointer-events="none" font-size="8px" fill="#000000" x="54.5498659132172" y="3" font-family="sans-serif">road</text></g><g class="relationship" transform="translate(90.62044783083809 259.10452348605884) rotate(291.1675702625813)"><path class="outline" fill="#A5ABB6" stroke="none" d="M 21.40063509461097,-12.933012701892217 L 21.90063509461097,-12.06698729810778 A 68.86176119249058 68.86176119249058 0 0 1 44.81522416716409,-20.322905033739985 L 44.647986336991536,-21.308821616498975 A 69.86176119249058 69.86176119249058 0 0 0 21.40063509461097,-12.933012701892217 Z M 64.05234595437483,-21.86476625467462 L 63.94183012809548,-20.870891890309693 A 68.86176119249058 68.86176119249058 0 0 1 87.2915154834807,-13.940468827753817 L 85.94272628945697,-11.260773376758529 L 93.76893640147365,-11.239909950197681 L 89.08990107551233,-17.513396095747535 L 87.7411118814886,-14.833700644752247 A 69.86176119249058 69.86176119249058 0 0 0 64.05234595437483,-21.86476625467462"/><text text-anchor="middle" pointer-events="none" font-size="8px" fill="#000000" x="54.34508155023492" y="-18.764263618378862" font-family="sans-serif">trek</text></g><g class="relationship" transform="translate(132.54369082157277 150.83823405435348) rotate(236.30461287645267)"><path class="outline" fill="#A5ABB6" stroke="none" d="M 24.018736134675446,-6.953439040707552 L 24.277555179777966,-5.987513214418485 A 149.02294725675813 149.02294725675813 0 0 1 49.41987034697109,-10.459166690614836 L 49.32976568867957,-11.455098992809184 A 150.02294725675813 150.02294725675813 0 0 0 24.018736134675446,-6.953439040707552 Z M 68.71050991080631,-11.950739059272337 L 68.67142937058978,-10.951502995383322 A 149.02294725675813 149.02294725675813 0 0 1 94.00944403310814,-7.770825435546025 L 93.38211960046993,-4.837147870404423 L 100.95924575721158,-6.796014686913826 L 94.84587660995908,-11.682395522401496 L 94.21855217732087,-8.748717957259892 A 150.02294725675813 150.02294725675813 0 0 0 68.71050991080631,-11.950739059272337"/><text text-anchor="middle" pointer-events="none" font-size="8px" fill="#000000" x="59.02490587989047" y="-8.516475378679587" transform="rotate(180 59.02490587989047 -11.516475378679587)" font-family="sans-serif">trek</text></g><g class="relationship" transform="translate(58.90211516798651 40.39808842764918) rotate(251.47345165424656)"><path class="outline" fill="#A5ABB6" stroke="none" d="M 31.26317983184346,-8.894581878976458 L 31.52199887694598,-7.92865605268739 A 117.42435067778727 117.42435067778727 0 0 1 50.722457632589936,-11.395285190847744 L 50.627152020985804,-12.390733250967784 A 118.42435067778727 118.42435067778727 0 0 0 31.26317983184346,-8.894581878976458 Z M 70.02156998309573,-12.651913987162871 L 69.95310507072308,-11.65426046224863 A 117.42435067778727 117.42435067778727 0 0 1 89.23995277138816,-8.70593215962061 L 88.54181063760153,-5.788296548199638 L 96.16412622033488,-7.563206449355277 L 90.17080894977035,-12.596112974848575 L 89.47266681598371,-9.678477363427602 A 118.42435067778727 118.42435067778727 0 0 0 70.02156998309573,-12.651913987162871"/><text text-anchor="middle" pointer-events="none" font-size="8px" fill="#000000" x="60.3257375978843" y="-9.419102162983464" transform="rotate(180 60.3257375978843 -12.419102162983464)" font-family="sans-serif">trek</text></g><g class="relationship" transform="translate(18.303373619158208 -80.75217631526569) rotate(391.40807350262077)"><path class="outline" fill="#A5ABB6" stroke="none" d="M 31.26317983184346,8.894581878976458 L 31.52199887694598,7.92865605268739 A 103.04688436863701 103.04688436863701 0 0 0 47.12643538607353,10.843986183193849 L 47.01904679522235,11.838203307646552 A 104.04688436863701 104.04688436863701 0 0 1 31.26317983184346,8.894581878976458 Z M 66.41817145939442,12.114233541929707 L 66.33911405734646,11.117363476584472 A 103.04688436863701 103.04688436863701 0 0 0 82.02018085216675,8.647194916826884 L 81.32648634869491,5.728498643513579 L 88.9460879071431,7.515023787611496 L 82.94510685679586,12.53878994791129 L 82.25141235332403,9.620093674597985 A 104.04688436863701 104.04688436863701 0 0 1 66.41817145939442,12.114233541929707"/><text text-anchor="middle" pointer-events="none" font-size="8px" fill="#000000" x="56.71927512483524" y="14.929412794661815" font-family="sans-serif">trek</text></g><g class="relationship" transform="translate(132.54369082157277 150.83823405435348) rotate(236.30461287645267)"><path class="outline" fill="#A5ABB6" stroke="none" d="M 24.018736134675446,6.953439040707552 L 24.277555179777966,5.987513214418485 A 149.02294725675813 149.02294725675813 0 0 0 36.029443660574316,8.63240262216172 L 35.84948420520027,9.616076650700393 A 150.02294725675813 150.02294725675813 0 0 1 24.018736134675446,6.953439040707552 Z M 82.2671703865659,10.803155165349551 L 82.1377259338703,9.811568490536729 A 149.02294725675813 149.02294725675813 0 0 0 94.00944403310814,7.770825435546025 L 93.38211960046993,4.837147870404423 L 100.95924575721158,6.796014686913826 L 94.84587660995908,11.682395522401496 L 94.21855217732087,8.748717957259892 A 150.02294725675813 150.02294725675813 0 0 1 82.2671703865659,10.803155165349551"/><text text-anchor="middle" pointer-events="none" font-size="8px" fill="#000000" x="59.02490587989051" y="14.516475378679587" transform="rotate(180 59.02490587989051 11.516475378679587)" font-family="sans-serif">twowheeler</text></g><g class="relationship" transform="translate(58.90211516798651 40.39808842764918) rotate(251.47345165424656)"><path class="outline" fill="#A5ABB6" stroke="none" d="M 31.26317983184346,8.894581878976458 L 31.52199887694598,7.92865605268739 A 117.42435067778727 117.42435067778727 0 0 0 37.38058547752842,9.338393614589307 L 37.17165886586723,10.316324936789272 A 118.42435067778727 118.42435067778727 0 0 1 31.26317983184346,8.894581878976458 Z M 83.52804474027239,10.94059708631572 L 83.3455283285259,9.957394279442596 A 117.42435067778727 117.42435067778727 0 0 0 89.23995277138816,8.70593215962061 L 88.54181063760153,5.788296548199638 L 96.16412622033488,7.563206449355277 L 90.17080894977035,12.596112974848575 L 89.47266681598371,9.678477363427602 A 118.42435067778727 118.42435067778727 0 0 1 83.52804474027239,10.94059708631572"/><text text-anchor="middle" pointer-events="none" font-size="8px" fill="#000000" x="60.32573759788429" y="15.419102162983464" transform="rotate(180 60.32573759788429 12.419102162983464)" font-family="sans-serif">twowheeler</text></g><g class="relationship" transform="translate(18.303373619158208 -80.75217631526569) rotate(391.40807350262077)"><path class="outline" fill="#A5ABB6" stroke="none" d="M 31.26317983184346,-8.894581878976458 L 31.52199887694598,-7.92865605268739 A 103.04688436863701 103.04688436863701 0 0 1 33.83871009545685,-8.520695276235813 L 33.602373158694675,-9.492366440942206 A 104.04688436863701 104.04688436863701 0 0 0 31.26317983184346,-8.894581878976458 Z M 79.8961577272929,-10.151080914999142 L 79.68756270045509,-9.173078811331393 A 103.04688436863701 103.04688436863701 0 0 1 82.02018085216675,-8.647194916826884 L 81.32648634869491,-5.728498643513579 L 88.9460879071431,-7.515023787611496 L 82.94510685679586,-12.53878994791129 L 82.25141235332403,-9.620093674597985 A 104.04688436863701 104.04688436863701 0 0 0 79.8961577272929,-10.151080914999142"/><text text-anchor="middle" pointer-events="none" font-size="8px" fill="#000000" x="56.719275124835214" y="-8.929412794661815" font-family="sans-serif">twowheeler</text></g><g class="relationship" transform="translate(132.54369082157277 150.83823405435348) rotate(414.3259887531798)"><path class="outline" fill="#A5ABB6" stroke="none" d="M 25 0.5 L 43.03115312128427 0.5 L 43.03115312128427 -0.5 L 25 -0.5 Z M 62.36709062128427 0.5 L 80.39824374256854 0.5 L 80.39824374256854 3.5 L 87.39824374256854 0 L 80.39824374256854 -3.5 L 80.39824374256854 -0.5 L 62.36709062128427 -0.5 Z"/><text text-anchor="middle" pointer-events="none" font-size="8px" fill="#000000" x="52.69912187128427" y="3" font-family="sans-serif">trek</text></g><g class="relationship" transform="translate(58.90211516798651 40.39808842764918) rotate(196.86589500406603)"><path class="outline" fill="#A5ABB6" stroke="none" d="M 31.26317983184346,-8.894581878976458 L 31.52199887694598,-7.92865605268739 A 132.0272889473795 132.0272889473795 0 0 1 41.00867535711793,-10.099280125174118 L 40.821710218551,-11.081646674360655 A 133.0272889473795 133.0272889473795 0 0 0 31.26317983184346,-8.894581878976458 Z M 87.21955696078686,-11.674131455650553 L 87.05773767241874,-10.68731104751538 A 132.0272889473795 132.0272889473795 0 0 1 96.59674801112158,-8.759638548975518 L 95.89453926637509,-5.842979007856334 L 103.51932173119076,-7.607261401420252 L 97.53302633745022,-12.64851793713443 L 96.83081759270374,-9.731858396015246 A 133.0272889473795 133.0272889473795 0 0 0 87.21955696078686,-11.674131455650553"/><text text-anchor="middle" pointer-events="none" font-size="8px" fill="#000000" x="64.00098511820194" y="-9.916572920917645" transform="rotate(180 64.00098511820194 -12.916572920917645)" font-family="sans-serif">twowheeler</text></g><g class="relationship" transform="translate(-70.40251315441209 1.196396064848591) rotate(317.2675261139371)"><path class="outline" fill="#A5ABB6" stroke="none" d="M 27.89582562299426,16.683012701892217 L 28.39582562299426,15.816987298107778 A 59.800458030328926 59.800458030328926 0 0 0 45.82382770420366,22.513640048855976 L 45.61526363388116,23.491648754630376 A 60.800458030328926 60.800458030328926 0 0 1 27.89582562299426,16.683012701892217 Z M 67.67808082360402,24.10050534941753 L 67.52377234486254,23.112482630352588 A 59.800458030328926 59.800458030328926 0 0 0 85.29457656987974,17.387193833894184 L 83.94014604437967,14.710345322753966 L 91.7662948501236,14.672997359584066 L 87.10048393721317,20.956325182081144 L 85.7460534117131,18.279476670940927 A 60.800458030328926 60.800458030328926 0 0 1 67.67808082360402,24.10050534941753"/><text text-anchor="middle" pointer-events="none" font-size="8px" fill="#000000" x="56.632606176706076" y="27.305781204561114" font-family="sans-serif">road</text></g><g class="relationship" transform="translate(58.90211516798651 40.39808842764918) rotate(196.86589500406603)"><path class="outline" fill="#A5ABB6" stroke="none" d="M 31.26317983184346,8.894581878976458 L 31.52199887694598,7.92865605268739 A 132.0272889473795 132.0272889473795 0 0 0 54.389684903400884,11.942613790252437 L 54.304070096670394,12.938942102039505 A 133.0272889473795 133.0272889473795 0 0 1 31.26317983184346,8.894581878976458 Z M 73.69416701447219,13.186547069471686 L 73.63402152591866,12.188357448103744 A 132.0272889473795 132.0272889473795 0 0 0 96.59674801112158,8.759638548975518 L 95.89453926637509,5.842979007856334 L 103.51932173119076,7.607261401420252 L 97.53302633745022,12.64851793713443 L 96.83081759270374,9.731858396015246 A 133.0272889473795 133.0272889473795 0 0 1 73.69416701447219,13.186547069471686"/><text text-anchor="middle" pointer-events="none" font-size="8px" fill="#000000" x="64.00098511820195" y="15.916572920917645" transform="rotate(180 64.00098511820195 12.916572920917645)" font-family="sans-serif">trek</text></g><g class="relationship" transform="translate(-70.40251315441209 1.196396064848591) rotate(317.2675261139371)"><path class="outline" fill="#A5ABB6" stroke="none" d="M 32.5 0.5 L 47.214774777071334 0.5 L 47.214774777071334 -0.5 L 32.5 -0.5 Z M 66.55071227707134 0.5 L 81.26548705414267 0.5 L 81.26548705414267 3.5 L 88.26548705414267 0 L 81.26548705414267 -3.5 L 81.26548705414267 -0.5 L 66.55071227707134 -0.5 Z"/><text text-anchor="middle" pointer-events="none" font-size="8px" fill="#000000" x="56.882743527071334" y="3" font-family="sans-serif">trek</text></g><g class="relationship" transform="translate(-70.40251315441209 1.196396064848591) rotate(317.2675261139371)"><path class="outline" fill="#A5ABB6" stroke="none" d="M 27.89582562299426,-16.683012701892217 L 28.39582562299426,-15.816987298107778 A 59.800458030328926 59.800458030328926 0 0 1 34.30188291574122,-18.803945867800856 L 33.90064565915952,-19.719920028970698 A 60.800458030328926 60.800458030328926 0 0 0 27.89582562299426,-16.683012701892217 Z M 79.58288407158214,-20.980590045989153 L 79.23277438288859,-20.04388133679354 A 59.800458030328926 59.800458030328926 0 0 1 85.29457656987974,-17.387193833894184 L 83.94014604437967,-14.710345322753966 L 91.7662948501236,-14.672997359584066 L 87.10048393721317,-20.956325182081144 L 85.7460534117131,-18.279476670940927 A 60.800458030328926 60.800458030328926 0 0 0 79.58288407158214,-20.980590045989153"/><text text-anchor="middle" pointer-events="none" font-size="8px" fill="#000000" x="56.63260617670607" y="-21.305781204561107" font-family="sans-serif">twowheeler</text></g><g class="relationship" transform="translate(-70.40251315441209 1.196396064848591) rotate(410.5567099329435)"><path class="outline" fill="#A5ABB6" stroke="none" d="M 32.5 0.5 L 43.09673192868268 0.5 L 43.09673192868268 -0.5 L 32.5 -0.5 Z M 62.43266942868268 0.5 L 73.02940135736536 0.5 L 73.02940135736536 3.5 L 80.02940135736536 0 L 73.02940135736536 -3.5 L 73.02940135736536 -0.5 L 62.43266942868268 -0.5 Z"/><text text-anchor="middle" pointer-events="none" font-size="8px" fill="#000000" x="52.76470067868268" y="3" font-family="sans-serif">trek</text></g><g class="relationship" transform="translate(1.0890105280505011 88.09765158746409) rotate(318.5665189875596)"><path class="outline" fill="#A5ABB6" stroke="none" d="M 32.5 0.5 L 66.93753425153491 0.5 L 66.93753425153491 -0.5 L 32.5 -0.5 Z M 86.27347175153491 0.5 L 120.71100600306983 0.5 L 120.71100600306983 3.5 L 127.71100600306983 0 L 120.71100600306983 -3.5 L 120.71100600306983 -0.5 L 86.27347175153491 -0.5 Z"/><text text-anchor="middle" pointer-events="none" font-size="8px" fill="#000000" x="76.60550300153491" y="3" font-family="sans-serif">trek</text></g></g><g class="layer nodes"><g class="node" transform="translate(90.62044783083809,259.10452348605884)"><circle class="outline" cx="0" cy="0" r="25" fill="#DE9BF9" stroke="#BF85D6" stroke-width="2px"/><text text-anchor="middle" pointer-events="none" font-family="sans-serif" dy="1.5625" font-size="25" fill="#FFFFFF"/><text text-anchor="middle" pointer-events="none" y="5" font-size="10px" fill="#FFFFFF" font-family="sans-serif"> Darjeeling</text></g><g class="node" transform="translate(202.46508521184842,248.237348316609)"><circle class="outline" cx="0" cy="0" r="32.5" fill="#FB95AF" stroke="#E0849B" stroke-width="2px"/><text text-anchor="middle" pointer-events="none" font-family="sans-serif" dy="2.03125" font-size="32.5" fill="#FFFFFF"/><text text-anchor="middle" pointer-events="none" y="5" font-size="10px" fill="#FFFFFF" font-family="sans-serif"> Tumbling</text></g><g class="node" transform="translate(294.19427522675505,162.7256619675409)"><circle class="outline" cx="0" cy="0" r="32.5" fill="#FB95AF" stroke="#E0849B" stroke-width="2px"/><text text-anchor="middle" pointer-events="none" font-family="sans-serif" dy="2.03125" font-size="32.5" fill="#FFFFFF"/><text text-anchor="middle" pointer-events="none" y="5" font-size="10px" fill="#FFFFFF" font-family="sans-serif"> Gairibus</text></g><g class="node" transform="translate(220.81603907372536,62.20802569522376)"><circle class="outline" cx="0" cy="0" r="32.5" fill="#FB95AF" stroke="#E0849B" stroke-width="2px"/><text text-anchor="middle" pointer-events="none" font-family="sans-serif" dy="2.03125" font-size="32.5" fill="#FFFFFF"/><text text-anchor="middle" pointer-events="none" y="5" font-size="10px" fill="#FFFFFF" font-family="sans-serif"> BhikeBhanja</text></g><g class="node" transform="translate(121.20312712444611,-17.92199488800362)"><circle class="outline" cx="0" cy="0" r="32.5" fill="#FFD86E" stroke="#EDBA39" stroke-width="2px"/><text text-anchor="middle" pointer-events="none" font-family="sans-serif" dy="2.03125" font-size="32.5" fill="#604A0E"/><text text-anchor="middle" pointer-events="none" y="5" font-size="10px" fill="#604A0E" font-family="sans-serif"> Sandakphu</text></g><g class="node" transform="translate(132.54369082157277,150.83823405435348)"><circle class="outline" cx="0" cy="0" r="25" fill="#DE9BF9" stroke="#BF85D6" stroke-width="2px"/><text text-anchor="middle" pointer-events="none" font-family="sans-serif" dy="1.5625" font-size="25" fill="#FFFFFF"/><text text-anchor="middle" pointer-events="none" y="5" font-size="10px" fill="#FFFFFF" font-family="sans-serif"> Rimbik</text></g><g class="node" transform="translate(58.90211516798651,40.39808842764918)"><circle class="outline" cx="0" cy="0" r="32.5" fill="#FB95AF" stroke="#E0849B" stroke-width="2px"/><text text-anchor="middle" pointer-events="none" font-family="sans-serif" dy="2.03125" font-size="32.5" fill="#FFFFFF"/><text text-anchor="middle" pointer-events="none" y="5" font-size="10px" fill="#FFFFFF" font-family="sans-serif"> Sirikhola</text></g><g class="node" transform="translate(18.303373619158208,-80.75217631526569)"><circle class="outline" cx="0" cy="0" r="32.5" fill="#FB95AF" stroke="#E0849B" stroke-width="2px"/><text text-anchor="middle" pointer-events="none" font-family="sans-serif" dy="2.03125" font-size="32.5" fill="#FFFFFF"/><text text-anchor="middle" pointer-events="none" y="5" font-size="10px" fill="#FFFFFF" font-family="sans-serif"> Gurdum</text></g><g class="node" transform="translate(-70.40251315441209,1.196396064848591)"><circle class="outline" cx="0" cy="0" r="32.5" fill="#FB95AF" stroke="#E0849B" stroke-width="2px"/><text text-anchor="middle" pointer-events="none" font-family="sans-serif" dy="2.03125" font-size="32.5" fill="#FFFFFF"/><text text-anchor="middle" pointer-events="none" y="5" font-size="10px" fill="#FFFFFF" font-family="sans-serif"> Rammam</text></g><g class="node" transform="translate(1.0890105280505011,88.09765158746409)"><circle class="outline" cx="0" cy="0" r="32.5" fill="#FFD86E" stroke="#EDBA39" stroke-width="2px"/><text text-anchor="middle" pointer-events="none" font-family="sans-serif" dy="2.03125" font-size="32.5" fill="#604A0E"/><text text-anchor="middle" pointer-events="none" y="5" font-size="10px" fill="#604A0E" font-family="sans-serif"> Sabargram</text></g></g></svg>