<svg xmlns="http://www.w3.org/2000/svg" width="624.2518920898438" height="301.4417724609375" viewBox="-255.77833557128906 -107.7583999633789 624.2518920898438 301.4417724609375"><title>Neo4j Graph Visualization</title><desc>Created using Neo4j (http://www.neo4j.com/)</desc><g class="layer relationships"><g class="relationship" transform="translate(331.97354486943186 125.4418386666807) rotate(186.25893353658228)"><path class="outline" fill="#A5ABB6" stroke="none" d="M 32.5 0.5 L 94.1510244405608 0.5 L 94.1510244405608 -0.5 L 32.5 -0.5 Z M 139.7135244405608 0.5 L 201.3645488811216 0.5 L 201.3645488811216 3.5 L 208.3645488811216 0 L 201.3645488811216 -3.5 L 201.3645488811216 -0.5 L 139.7135244405608 -0.5 Z"/><text text-anchor="middle" pointer-events="none" font-size="8px" fill="#000000" x="116.9322744405608" y="3" transform="rotate(180 116.9322744405608 0)" font-family="sans-serif">ACTED_IN</text></g><g class="relationship" transform="translate(320.8028277622801 29.391362855219946) rotate(522.2666906000181)"><path class="outline" fill="#A5ABB6" stroke="none" d="M 32.5 0.5 L 93.3776241059029 0.5 L 93.3776241059029 -0.5 L 32.5 -0.5 Z M 138.9401241059029 0.5 L 199.8177482118058 0.5 L 199.8177482118058 3.5 L 206.8177482118058 0 L 199.8177482118058 -3.5 L 199.8177482118058 -0.5 L 138.9401241059029 -0.5 Z"/><text text-anchor="middle" pointer-events="none" font-size="8px" fill="#000000" x="116.1588741059029" y="3" transform="rotate(180 116.1588741059029 0)" font-family="sans-serif">ACTED_IN</text></g><g class="relationship" transform="translate(-28.655331125283766 -71.25840246433367) rotate(413.08483722932743)"><path class="outline" fill="#A5ABB6" stroke="none" d="M 32.5 0.5 L 84.56874374242672 0.5 L 84.56874374242672 -0.5 L 32.5 -0.5 Z M 130.1312437424267 0.5 L 182.19998748485344 0.5 L 182.19998748485344 3.5 L 189.19998748485344 0 L 182.19998748485344 -3.5 L 182.19998748485344 -0.5 L 130.1312437424267 -0.5 Z"/><text text-anchor="middle" pointer-events="none" font-size="8px" fill="#000000" x="107.34999374242672" y="3" font-family="sans-serif">ACTED_IN</text></g><g class="relationship" transform="translate(-150.72438242266372 -23.639244425375672) rotate(386.24920259817645)"><path class="outline" fill="#A5ABB6" stroke="none" d="M 32.5 0.5 L 122.1393331160831 0.5 L 122.1393331160831 -0.5 L 32.5 -0.5 Z M 157.9127706160831 0.5 L 247.5521037321662 0.5 L 247.5521037321662 3.5 L 254.5521037321662 0 L 247.5521037321662 -3.5 L 247.5521037321662 -0.5 L 157.9127706160831 -0.5 Z"/><text text-anchor="middle" pointer-events="none" font-size="8px" fill="#000000" x="140.0260518660831" y="3" font-family="sans-serif">WROTE</text></g><g class="relationship" transform="translate(-219.27833390872678 55.537675072734636) rotate(367.92795617548995)"><path class="outline" fill="#A5ABB6" stroke="none" d="M 32.5 0.5 L 143.5429580401201 0.5 L 143.5429580401201 -0.5 L 32.5 -0.5 Z M 179.3163955401201 0.5 L 290.3593535802402 0.5 L 290.3593535802402 3.5 L 297.3593535802402 0 L 290.3593535802402 -3.5 L 290.3593535802402 -0.5 L 179.3163955401201 -0.5 Z"/><text text-anchor="middle" pointer-events="none" font-size="8px" fill="#000000" x="161.4296767901201" y="3" font-family="sans-serif">WROTE</text></g><g class="relationship" transform="translate(-174.20742909348996 157.18336967664953) rotate(348.2203324466193)"><path class="outline" fill="#A5ABB6" stroke="none" d="M 32.5 0.5 L 116.85793803231212 0.5 L 116.85793803231212 -0.5 L 32.5 -0.5 Z M 163.74856303231212 0.5 L 248.10650106462424 0.5 L 248.10650106462424 3.5 L 255.10650106462424 0 L 248.10650106462424 -3.5 L 248.10650106462424 -0.5 L 163.74856303231212 -0.5 Z"/><text text-anchor="middle" pointer-events="none" font-size="8px" fill="#000000" x="140.30325053231212" y="3" font-family="sans-serif">DIRECTED</text></g></g><g class="layer nodes"><g class="node selected" transform="translate(100,99.99999999100561)"><circle class="outline" cx="0" cy="0" r="25" fill="#68BDF6" stroke="#5CA8DB" stroke-width="2px"/><text text-anchor="middle" pointer-events="none" font-family="sans-serif" dy="1.5625" font-size="25" fill="#FFFFFF"/><text text-anchor="middle" pointer-events="none" y="5" font-size="10px" fill="#FFFFFF" font-family="sans-serif"> </text></g><g class="node" transform="translate(331.97354486943186,125.4418386666807)"><circle class="outline" cx="0" cy="0" r="32.5" fill="#6DCE9E" stroke="#60B58B" stroke-width="2px"/><text text-anchor="middle" pointer-events="none" font-family="sans-serif" dy="2.03125" font-size="32.5" fill="#FFFFFF"/><text text-anchor="middle" pointer-events="none" font-family="sans-serif" dy="2.03125" font-size="32.5" fill="#FFFFFF"/><text text-anchor="middle" pointer-events="none" y="0" font-size="10px" fill="#FFFFFF" font-family="sans-serif"> Hugo</text><text text-anchor="middle" pointer-events="none" y="10" font-size="10px" fill="#FFFFFF" font-family="sans-serif"> Weaving</text></g><g class="node" transform="translate(320.8028277622801,29.391362855219946)"><circle class="outline" cx="0" cy="0" r="32.5" fill="#6DCE9E" stroke="#60B58B" stroke-width="2px"/><text text-anchor="middle" pointer-events="none" font-family="sans-serif" dy="2.03125" font-size="32.5" fill="#FFFFFF"/><text text-anchor="middle" pointer-events="none" y="5" font-size="10px" fill="#FFFFFF" font-family="sans-serif"> Chris Evans</text></g><g class="node" transform="translate(-28.655331125283766,-71.25840246433367)"><circle class="outline" cx="0" cy="0" r="32.5" fill="#6DCE9E" stroke="#60B58B" stroke-width="2px"/><text text-anchor="middle" pointer-events="none" font-family="sans-serif" dy="2.03125" font-size="32.5" fill="#FFFFFF"/><text text-anchor="middle" pointer-events="none" font-family="sans-serif" dy="2.03125" font-size="32.5" fill="#FFFFFF"/><text text-anchor="middle" pointer-events="none" y="0" font-size="10px" fill="#FFFFFF" font-family="sans-serif"> Samuel L.</text><text text-anchor="middle" pointer-events="none" y="10" font-size="10px" fill="#FFFFFF" font-family="sans-serif"> Jackson</text></g><g class="node" transform="translate(-150.72438242266372,-23.639244425375672)"><circle class="outline" cx="0" cy="0" r="32.5" fill="#6DCE9E" stroke="#60B58B" stroke-width="2px"/><text text-anchor="middle" pointer-events="none" font-family="sans-serif" dy="2.03125" font-size="32.5" fill="#FFFFFF"/><text text-anchor="middle" pointer-events="none" font-family="sans-serif" dy="2.03125" font-size="32.5" fill="#FFFFFF"/><text text-anchor="middle" pointer-events="none" y="0" font-size="10px" fill="#FFFFFF" font-family="sans-serif"> Christopher</text><text text-anchor="middle" pointer-events="none" y="10" font-size="10px" fill="#FFFFFF" font-family="sans-serif"> Markus</text></g><g class="node" transform="translate(-219.27833390872678,55.537675072734636)"><circle class="outline" cx="0" cy="0" r="32.5" fill="#6DCE9E" stroke="#60B58B" stroke-width="2px"/><text text-anchor="middle" pointer-events="none" font-family="sans-serif" dy="2.03125" font-size="32.5" fill="#FFFFFF"/><text text-anchor="middle" pointer-events="none" font-family="sans-serif" dy="2.03125" font-size="32.5" fill="#FFFFFF"/><text text-anchor="middle" pointer-events="none" y="0" font-size="10px" fill="#FFFFFF" font-family="sans-serif"> Stephen</text><text text-anchor="middle" pointer-events="none" y="10" font-size="10px" fill="#FFFFFF" font-family="sans-serif"> McFeely</text></g><g class="node" transform="translate(-174.20742909348996,157.18336967664953)"><circle class="outline" cx="0" cy="0" r="32.5" fill="#6DCE9E" stroke="#60B58B" stroke-width="2px"/><text text-anchor="middle" pointer-events="none" font-family="sans-serif" dy="2.03125" font-size="32.5" fill="#FFFFFF"/><text text-anchor="middle" pointer-events="none" y="5" font-size="10px" fill="#FFFFFF" font-family="sans-serif"> Joe Johnston</text></g></g></svg>