<svg xmlns="http://www.w3.org/2000/svg" width="382.1714782714844" height="455.17816162109375" viewBox="-107.59806060791016 -134.4928741455078 382.1714782714844 455.17816162109375"><title>Neo4j Graph Visualization</title><desc>Created using Neo4j (http://www.neo4j.com/)</desc><g class="layer relationships"><g class="relationship" transform="translate(161.6212480765705 -6.782303008648153) rotate(530.2847812472135)"><path class="outline" fill="#A5ABB6" stroke="none" d="M 21.40063509461097,12.933012701892217 L 21.90063509461097,12.06698729810778 A 54.251962075330574 54.251962075330574 0 0 0 22.697425820877832,12.518092674929072 L 22.21211267635341,13.392433084467498 A 55.251962075330574 55.251962075330574 0 0 1 21.40063509461097,12.933012701892217 Z M 72.65785211050239,15.026817902290666 L 72.23015262091671,14.122896917575659 A 54.251962075330574 54.251962075330574 0 0 0 73.05447229579923,13.724313681521327 L 71.72579097750003,11.034591399499877 L 79.55193784023248,11.072344319160079 L 74.82604738686484,17.310610057549926 L 73.49736606856564,14.620887775528477 A 55.251962075330574 55.251962075330574 0 0 1 72.65785211050239,15.026817902290666"/><text text-anchor="middle" pointer-events="none" font-size="8px" fill="#000000" x="47.253644866561594" y="22.8066584137623" transform="rotate(180 47.253644866561594 19.8066584137623)" font-family="sans-serif">PublicTran…</text></g><g class="relationship" transform="translate(61.11728902019175 10.424630163445478) rotate(396.62968122353914)"><path class="outline" fill="#A5ABB6" stroke="none" d="M 25 0.5 L 51.7028826668617 0.5 L 51.7028826668617 -0.5 L 25 -0.5 Z M 71.0388201668617 0.5 L 97.7417028337234 0.5 L 97.7417028337234 3.5 L 104.7417028337234 0 L 97.7417028337234 -3.5 L 97.7417028337234 -0.5 L 71.0388201668617 -0.5 Z"/><text text-anchor="middle" pointer-events="none" font-size="8px" fill="#000000" x="61.3708514168617" y="3" font-family="sans-serif">trek</text></g><g class="relationship" transform="translate(171.25492238472208 92.30861341756136) rotate(456.5431549820157)"><path class="outline" fill="#A5ABB6" stroke="none" d="M 32.5 0.5 L 53.17085839933918 0.5 L 53.17085839933918 -0.5 L 32.5 -0.5 Z M 72.50679589933918 0.5 L 93.17765429867836 0.5 L 93.17765429867836 3.5 L 100.17765429867836 0 L 93.17765429867836 -3.5 L 93.17765429867836 -0.5 L 72.50679589933918 -0.5 Z"/><text text-anchor="middle" pointer-events="none" font-size="8px" fill="#000000" x="62.83882714933918" y="3" transform="rotate(180 62.83882714933918 0)" font-family="sans-serif">trek</text></g><g class="relationship" transform="translate(161.6212480765705 -6.782303008648153) rotate(530.2847812472135)"><path class="outline" fill="#A5ABB6" stroke="none" d="M 25 0.5 L 36.477285720205614 0.5 L 36.477285720205614 -0.5 L 25 -0.5 Z M 58.489004470205614 0.5 L 69.96629019041123 0.5 L 69.96629019041123 3.5 L 76.96629019041123 0 L 69.96629019041123 -3.5 L 69.96629019041123 -0.5 L 58.489004470205614 -0.5 Z"/><text text-anchor="middle" pointer-events="none" font-size="8px" fill="#000000" x="47.483145095205614" y="3" transform="rotate(180 47.483145095205614 0)" font-family="sans-serif">road</text></g><g class="relationship" transform="translate(161.6212480765705 -6.782303008648153) rotate(530.2847812472135)"><path class="outline" fill="#A5ABB6" stroke="none" d="M 21.40063509461097,-12.933012701892217 L 21.90063509461097,-12.06698729810778 A 54.251962075330574 54.251962075330574 0 0 1 37.7721747316991,-18.15518150766065 L 37.56472709349295,-19.13342763078238 A 55.251962075330574 55.251962075330574 0 0 0 21.40063509461097,-12.933012701892217 Z M 56.96582140046597,-19.762001110726395 L 56.822130480361345,-18.772378496049726 A 54.251962075330574 54.251962075330574 0 0 1 73.05447229579923,-13.724313681521327 L 71.72579097750003,-11.034591399499877 L 79.55193784023248,-11.072344319160079 L 74.82604738686484,-17.310610057549926 L 73.49736606856564,-14.620887775528477 A 55.251962075330574 55.251962075330574 0 0 0 56.96582140046597,-19.762001110726395"/><text text-anchor="middle" pointer-events="none" font-size="8px" fill="#000000" x="47.253644866561594" y="-16.8066584137623" transform="rotate(180 47.253644866561594 -19.8066584137623)" font-family="sans-serif">trek</text></g><g class="relationship" transform="translate(161.6212480765705 -6.782303008648153) rotate(246.21378235211478)"><path class="outline" fill="#A5ABB6" stroke="none" d="M 24.018736134675446,-6.953439040707552 L 24.277555179777966,-5.987513214418485 A 80.63478556348473 80.63478556348473 0 0 1 32.9253534766115,-7.803433514791152 L 32.77378092861815,-8.79187965024559 A 81.63478556348473 81.63478556348473 0 0 0 24.018736134675446,-6.953439040707552 Z M 52.172303060125145,-9.432256625655597 L 52.08624991953967,-8.435966077173191 A 80.63478556348473 80.63478556348473 0 0 1 60.83498303416916,-7.194333760821919 L 60.25132886271536,-4.251656780903026 L 67.79850501588888,-6.322920190749528 L 61.61318859610757,-11.117903067380443 L 61.02953442465377,-8.17522608746155 A 81.63478556348473 81.63478556348473 0 0 0 52.172303060125145,-9.432256625655597"/><text text-anchor="middle" pointer-events="none" font-size="8px" fill="#000000" x="42.47043949511136" y="-6.190903950974175" transform="rotate(180 42.47043949511136 -9.190903950974175)" font-family="sans-serif">trek</text></g><g class="relationship" transform="translate(121.41879883117227 -97.99287368784167) rotate(392.65816189559234)"><path class="outline" fill="#A5ABB6" stroke="none" d="M 27.89582562299426,-16.683012701892217 L 28.39582562299426,-15.816987298107778 A 78.13128214953093 78.13128214953093 0 0 1 56.005939220188225,-25.440233015608044 L 55.85932025832801,-26.429426060479997 A 79.13128214953093 79.13128214953093 0 0 0 27.89582562299426,-16.683012701892217 Z M 75.26353819440075,-26.89902626364278 L 75.16494164339456,-25.903898774257797 A 78.13128214953093 78.13128214953093 0 0 1 103.20824293250168,-17.62751769327165 L 101.83567709518462,-14.959922704854154 L 109.66139221169534,-14.86946323760144 L 105.03833071559109,-21.184311011161643 L 103.66576487827403,-18.51671602274415 A 79.13128214953093 79.13128214953093 0 0 0 75.26353819440075,-26.89902626364278"/><text text-anchor="middle" pointer-events="none" font-size="8px" fill="#000000" x="65.55907322587343" y="-23.761577795804385" font-family="sans-serif">trek</text></g><g class="relationship" transform="translate(238.07344676277148 -23.222155085336844) rotate(480.04342642610186)"><path class="outline" fill="#A5ABB6" stroke="none" d="M 27.89582562299426,16.683012701892217 L 28.39582562299426,15.816987298107778 A 72.89387053505895 72.89387053505895 0 0 0 53.4592607474365,24.68857339744183 L 53.303095351642185,25.676304316850747 A 73.89387053505895 73.89387053505895 0 0 1 27.89582562299426,16.683012701892217 Z M 72.70840357098942,26.163091895678463 L 72.60195844064894,25.16877331784397 A 72.89387053505895 72.89387053505895 0 0 0 98.07868252858643,17.565001234060176 L 96.7108341185307,14.894984244019096 L 104.53669690702489,14.818357775603667 L 99.90248040866072,21.125023887448283 L 98.534631998605,18.455006897407202 A 73.89387053505895 73.89387053505895 0 0 1 72.70840357098942,26.163091895678463"/><text text-anchor="middle" pointer-events="none" font-size="8px" fill="#000000" x="63.00223414496458" y="29.059832736339104" transform="rotate(180 63.00223414496458 26.059832736339104)" font-family="sans-serif">trek</text></g><g class="relationship" transform="translate(161.6212480765705 -6.782303008648153) rotate(246.21378235211478)"><path class="outline" fill="#A5ABB6" stroke="none" d="M 24.018736134675446,6.953439040707552 L 24.277555179777966,5.987513214418485 A 80.63478556348473 80.63478556348473 0 0 0 31.612791437847974,7.591069010751241 L 31.444941026280105,8.576881487511656 A 81.63478556348473 81.63478556348473 0 0 1 24.018736134675446,6.953439040707552 Z M 53.512429290771,9.305365404683783 L 53.409960032700866,8.310629233053064 A 80.63478556348473 80.63478556348473 0 0 0 60.83498303416916,7.194333760821919 L 60.25132886271536,4.251656780903026 L 67.79850501588888,6.322920190749528 L 61.61318859610757,11.117903067380443 L 61.02953442465377,8.17522608746155 A 81.63478556348473 81.63478556348473 0 0 1 53.512429290771,9.305365404683783"/><text text-anchor="middle" pointer-events="none" font-size="8px" fill="#000000" x="42.470439495111364" y="12.190903950974175" transform="rotate(180 42.470439495111364 9.190903950974175)" font-family="sans-serif">road</text></g><g class="relationship" transform="translate(61.11728902019175 10.424630163445478) rotate(299.08268841093786)"><path class="outline" fill="#A5ABB6" stroke="none" d="M 25 0.5 L 45.11151461643559 0.5 L 45.11151461643559 -0.5 L 25 -0.5 Z M 64.44745211643558 0.5 L 84.55896673287118 0.5 L 84.55896673287118 3.5 L 91.55896673287118 0 L 84.55896673287118 -3.5 L 84.55896673287118 -0.5 L 64.44745211643558 -0.5 Z"/><text text-anchor="middle" pointer-events="none" font-size="8px" fill="#000000" x="54.77948336643559" y="3" font-family="sans-serif">trek</text></g><g class="relationship" transform="translate(121.41879883117227 -97.99287368784167) rotate(392.65816189559234)"><path class="outline" fill="#A5ABB6" stroke="none" d="M 32.5 0.5 L 54.77430958477579 0.5 L 54.77430958477579 -0.5 L 32.5 -0.5 Z M 76.78602833477579 0.5 L 99.06033791955159 0.5 L 99.06033791955159 3.5 L 106.06033791955159 0 L 99.06033791955159 -3.5 L 99.06033791955159 -0.5 L 76.78602833477579 -0.5 Z"/><text text-anchor="middle" pointer-events="none" font-size="8px" fill="#000000" x="65.78016895977579" y="3" font-family="sans-serif">road</text></g><g class="relationship" transform="translate(121.41879883117227 -97.99287368784167) rotate(392.65816189559234)"><path class="outline" fill="#A5ABB6" stroke="none" d="M 27.89582562299426,16.683012701892217 L 28.39582562299426,15.816987298107778 A 78.13128214953093 78.13128214953093 0 0 0 42.90945460128641,22.3267302243881 L 42.59521411500482,23.276073637901618 A 79.13128214953093 79.13128214953093 0 0 1 27.89582562299426,16.683012701892217 Z M 88.66465506023526,24.39099715085898 L 88.39670554916316,23.42756419547692 A 78.13128214953093 78.13128214953093 0 0 0 103.20824293250168,17.62751769327165 L 101.83567709518462,14.959922704854154 L 109.66139221169534,14.86946323760144 L 105.03833071559109,21.184311011161643 L 103.66576487827403,18.51671602274415 A 79.13128214953093 79.13128214953093 0 0 1 88.66465506023526,24.39099715085898"/><text text-anchor="middle" pointer-events="none" font-size="8px" fill="#000000" x="65.55907322587343" y="29.761577795804385" font-family="sans-serif">twowheeler</text></g><g class="relationship" transform="translate(238.07344676277148 -23.222155085336844) rotate(480.04342642610186)"><path class="outline" fill="#A5ABB6" stroke="none" d="M 32.5 0.5 L 39.99851860790163 0.5 L 39.99851860790163 -0.5 L 32.5 -0.5 Z M 86.46336235790163 0.5 L 93.96188096580326 0.5 L 93.96188096580326 3.5 L 100.96188096580326 0 L 93.96188096580326 -3.5 L 93.96188096580326 -0.5 L 86.46336235790163 -0.5 Z"/><text text-anchor="middle" pointer-events="none" font-size="8px" fill="#000000" x="63.23094048290163" y="3" transform="rotate(180 63.23094048290163 0)" font-family="sans-serif">twowheeler</text></g><g class="relationship" transform="translate(238.07344676277148 -23.222155085336844) rotate(480.04342642610186)"><path class="outline" fill="#A5ABB6" stroke="none" d="M 27.89582562299426,-16.683012701892217 L 28.39582562299426,-15.816987298107778 A 72.89387053505895 72.89387053505895 0 0 1 52.14875140656243,-24.469113882539475 L 51.974607690626044,-25.453834130223996 A 73.89387053505895 73.89387053505895 0 0 0 27.89582562299426,-16.683012701892217 Z M 74.04637475971617,-26.007510574347634 L 73.92182296939107,-25.015297466428365 A 72.89387053505895 72.89387053505895 0 0 1 98.07868252858643,-17.565001234060176 L 96.7108341185307,-14.894984244019096 L 104.53669690702489,-14.818357775603667 L 99.90248040866072,-21.125023887448283 L 98.534631998605,-18.455006897407202 A 73.89387053505895 73.89387053505895 0 0 0 74.04637475971617,-26.007510574347634"/><text text-anchor="middle" pointer-events="none" font-size="8px" fill="#000000" x="63.00223414496459" y="-23.059832736339104" transform="rotate(180 63.00223414496459 -26.059832736339104)" font-family="sans-serif">road</text></g><g class="relationship" transform="translate(61.11728902019175 10.424630163445478) rotate(505.2611340673038)"><path class="outline" fill="#A5ABB6" stroke="none" d="M 24.018736134675446,-6.953439040707552 L 24.277555179777966,-5.987513214418485 A 132.390984477889 132.390984477889 0 0 1 45.34927986321587,-9.8395749631037 L 45.24962365511874,-10.834596892604594 A 133.390984477889 133.390984477889 0 0 0 24.018736134675446,-6.953439040707552 Z M 64.6340910985634,-11.359477716421594 L 64.58842663510751,-10.360520882130317 A 132.390984477889 132.390984477889 0 0 1 85.83772974111284,-7.654402193047554 L 85.21922388545595,-4.7188527544384655 L 92.79042940714352,-6.700480102949657 L 86.66240421532201,-11.568468111193006 L 86.04389835966512,-8.632918672583918 A 133.390984477889 133.390984477889 0 0 0 64.6340910985634,-11.359477716421594"/><text text-anchor="middle" pointer-events="none" font-size="8px" fill="#000000" x="54.94584048187778" y="-7.949936541055251" transform="rotate(180 54.94584048187778 -10.949936541055251)" font-family="sans-serif">trek</text></g><g class="relationship" transform="translate(-41.26732147645941 81.42189468878158) rotate(409.2674190510166)"><path class="outline" fill="#A5ABB6" stroke="none" d="M 31.26317983184346,-8.894581878976458 L 31.52199887694598,-7.92865605268739 A 111.89467656008098 111.89467656008098 0 0 1 49.33752223318509,-11.184960799996375 L 49.23792008654399,-12.179988142527463 A 112.89467656008098 112.89467656008098 0 0 0 31.26317983184346,-8.894581878976458 Z M 68.6341000723201,-12.446693516049933 L 68.56189447233592,-11.449303747037376 A 111.89467656008098 111.89467656008098 0 0 1 86.46021631244287,-8.684078914948842 L 85.7637289130031,-5.7660478489007705 L 93.385036699795,-7.545280160597411 L 87.38886617836256,-12.574787003012935 L 86.6923787789228,-9.656755936964863 A 112.89467656008098 112.89467656008098 0 0 0 68.6341000723201,-12.446693516049933"/><text text-anchor="middle" pointer-events="none" font-size="8px" fill="#000000" x="58.93714572642161" y="-9.230750767006995" font-family="sans-serif">trek</text></g><g class="relationship" transform="translate(40.29692292498848 176.1400768018897) rotate(382.49992047132343)"><path class="outline" fill="#A5ABB6" stroke="none" d="M 31.26317983184346,8.894581878976458 L 31.52199887694598,7.92865605268739 A 112.66496871066956 112.66496871066956 0 0 0 49.53031168350283,11.214376905782885 L 49.431332143196194,12.209466374424125 A 113.66496871066956 113.66496871066956 0 0 1 31.26317983184346,8.894581878976458 Z M 68.82726276950123,12.475388648008263 L 68.75560107490219,11.477959652276141 A 112.66496871066956 112.66496871066956 0 0 0 86.84722402501576,8.687176483667725 L 86.15050207596708,5.769201410828034 L 93.77195285314983,7.547821114694078 L 87.77618662374734,12.577809914120648 L 87.07946467469866,9.659834841280956 A 113.66496871066956 113.66496871066956 0 0 1 68.82726276950123,12.475388648008263"/><text text-anchor="middle" pointer-events="none" font-size="8px" fill="#000000" x="59.13046885727442" y="15.256987465956385" font-family="sans-serif">trek</text></g><g class="relationship" transform="translate(61.11728902019175 10.424630163445478) rotate(505.2611340673038)"><path class="outline" fill="#A5ABB6" stroke="none" d="M 24.018736134675446,6.953439040707552 L 24.277555179777966,5.987513214418485 A 132.390984477889 132.390984477889 0 0 0 31.99514024265366,7.809574153432237 L 31.794615084354017,8.789262706437171 A 133.390984477889 133.390984477889 0 0 1 24.018736134675446,6.953439040707552 Z M 78.18006757892884,10.045259787064225 L 78.03285220081867,9.056155327238116 A 132.390984477889 132.390984477889 0 0 0 85.83772974111284,7.654402193047554 L 85.21922388545595,4.7188527544384655 L 92.79042940714352,6.700480102949657 L 86.66240421532201,11.568468111193006 L 86.04389835966512,8.632918672583918 A 133.390984477889 133.390984477889 0 0 1 78.18006757892884,10.045259787064225"/><text text-anchor="middle" pointer-events="none" font-size="8px" fill="#000000" x="54.945840481877795" y="13.949936541055251" transform="rotate(180 54.945840481877795 10.949936541055251)" font-family="sans-serif">twowheeler</text></g><g class="relationship" transform="translate(-41.26732147645941 81.42189468878158) rotate(409.2674190510166)"><path class="outline" fill="#A5ABB6" stroke="none" d="M 31.26317983184346,8.894581878976458 L 31.52199887694598,7.92865605268739 A 111.89467656008098 111.89467656008098 0 0 0 36.01422316155935,9.033343067263274 L 35.795551015511506,10.009141454504629 A 112.89467656008098 112.89467656008098 0 0 1 31.26317983184346,8.894581878976458 Z M 82.13107567379765,10.646273787799657 L 81.93931637993941,9.664831801119348 A 111.89467656008098 111.89467656008098 0 0 0 86.46021631244287,8.684078914948842 L 85.7637289130031,5.7660478489007705 L 93.385036699795,7.545280160597411 L 87.38886617836256,12.574787003012935 L 86.6923787789228,9.656755936964863 A 112.89467656008098 112.89467656008098 0 0 1 82.13107567379765,10.646273787799657"/><text text-anchor="middle" pointer-events="none" font-size="8px" fill="#000000" x="58.93714572642167" y="15.230750767006995" font-family="sans-serif">twowheeler</text></g><g class="relationship" transform="translate(-41.26732147645941 81.42189468878158) rotate(463.43648287709675)"><path class="outline" fill="#A5ABB6" stroke="none" d="M 31.26317983184346,-8.894581878976458 L 31.52199887694598,-7.92865605268739 A 118.63044235337331 118.63044235337331 0 0 1 37.67920821304692,-9.403559561180586 L 37.47229160726735,-10.38191814485667 A 119.63044235337331 119.63044235337331 0 0 0 31.26317983184346,-8.894581878976458 Z M 83.83279044235016,-11.003447378187332 L 83.65217609929198,-10.019893384203442 A 118.63044235337331 118.63044235337331 0 0 1 89.84671183379243,-8.710582801518406 L 89.14821755359965,-5.793031475399536 L 96.77074730810193,-7.5670213687550705 L 90.77803754071614,-12.600651236343564 L 90.07954326052337,-9.683099910224694 A 119.63044235337331 119.63044235337331 0 0 0 83.83279044235016,-11.003447378187332"/><text text-anchor="middle" pointer-events="none" font-size="8px" fill="#000000" x="60.62884509941494" y="-9.460185982133808" transform="rotate(180 60.62884509941494 -12.460185982133808)" font-family="sans-serif">twowheeler</text></g><g class="relationship" transform="translate(-71.09806281089797 206.28551258155917) rotate(344.8574522779039)"><path class="outline" fill="#A5ABB6" stroke="none" d="M 27.89582562299426,16.683012701892217 L 28.39582562299426,15.816987298107778 A 54.24286530869656 54.24286530869656 0 0 0 43.158836192741276,21.657552890284244 L 42.93100121362892,22.631252650114178 A 55.24286530869656 55.24286530869656 0 0 1 27.89582562299426,16.683012701892217 Z M 64.98527569242549,23.266749046460596 L 64.81388672912361,22.28154560388728 A 54.24286530869656 54.24286530869656 0 0 0 79.88871572861929,17.300760710425113 L 78.54080809251387,14.62062172064703 L 86.36702464411906,14.602332724475463 L 81.68592591009319,20.874279363462556 L 80.33801827398777,18.194140373684473 A 55.24286530869656 55.24286530869656 0 0 1 64.98527569242549,23.266749046460596"/><text text-anchor="middle" pointer-events="none" font-size="8px" fill="#000000" x="53.940490932069274" y="26.561440624994397" font-family="sans-serif">road</text></g><g class="relationship" transform="translate(-41.26732147645941 81.42189468878158) rotate(463.43648287709675)"><path class="outline" fill="#A5ABB6" stroke="none" d="M 31.26317983184346,8.894581878976458 L 31.52199887694598,7.92865605268739 A 118.63044235337331 118.63044235337331 0 0 0 51.02481850526326,11.440911557792361 L 50.93039924862501,12.43644408060409 A 119.63044235337331 119.63044235337331 0 0 1 31.26317983184346,8.894581878976458 Z M 70.32444179674985,12.696449143081907 L 70.25674477122276,11.698743218104624 A 118.63044235337331 118.63044235337331 0 0 0 89.84671183379243,8.710582801518406 L 89.14821755359965,5.793031475399536 L 96.77074730810193,7.5670213687550705 L 90.77803754071614,12.600651236343564 L 90.07954326052337,9.683099910224694 A 119.63044235337331 119.63044235337331 0 0 1 70.32444179674985,12.696449143081907"/><text text-anchor="middle" pointer-events="none" font-size="8px" fill="#000000" x="60.628845099414946" y="15.460185982133808" transform="rotate(180 60.628845099414946 12.460185982133808)" font-family="sans-serif">trek</text></g><g class="relationship" transform="translate(-71.09806281089797 206.28551258155917) rotate(344.8574522779039)"><path class="outline" fill="#A5ABB6" stroke="none" d="M 32.5 0.5 L 44.53296310002414 0.5 L 44.53296310002414 -0.5 L 32.5 -0.5 Z M 63.86890060002414 0.5 L 75.90186370004828 0.5 L 75.90186370004828 3.5 L 82.90186370004828 0 L 75.90186370004828 -3.5 L 75.90186370004828 -0.5 L 63.86890060002414 -0.5 Z"/><text text-anchor="middle" pointer-events="none" font-size="8px" fill="#000000" x="54.20093185002414" y="3" font-family="sans-serif">trek</text></g><g class="relationship" transform="translate(-71.09806281089797 206.28551258155917) rotate(344.8574522779039)"><path class="outline" fill="#A5ABB6" stroke="none" d="M 27.89582562299426,-16.683012701892217 L 28.39582562299426,-15.816987298107778 A 54.24286530869656 54.24286530869656 0 0 1 31.767358174384846,-17.608394524284215 L 31.329514414329086,-18.507445602799912 A 55.24286530869656 55.24286530869656 0 0 0 27.89582562299426,-16.683012701892217 Z M 76.80497155973825,-19.817826008462227 L 76.41962382001765,-18.89505457441573 A 54.24286530869656 54.24286530869656 0 0 1 79.88871572861929,-17.300760710425113 L 78.54080809251387,-14.62062172064703 L 86.36702464411906,-14.602332724475463 L 81.68592591009319,-20.874279363462556 L 80.33801827398777,-18.194140373684473 A 55.24286530869656 55.24286530869656 0 0 0 76.80497155973825,-19.817826008462227"/><text text-anchor="middle" pointer-events="none" font-size="8px" fill="#000000" x="53.94049093206926" y="-20.561440624994397" font-family="sans-serif">twowheeler</text></g><g class="relationship" transform="translate(40.29692292498848 176.1400768018897) rotate(382.49992047132343)"><path class="outline" fill="#A5ABB6" stroke="none" d="M 31.26317983184346,-8.894581878976458 L 31.52199887694598,-7.92865605268739 A 112.66496871066956 112.66496871066956 0 0 1 36.204274683795504,-9.076486510407378 L 35.98701492602456,-10.052600334535128 A 113.66496871066956 113.66496871066956 0 0 0 31.26317983184346,-8.894581878976458 Z M 82.3256577400226,-10.68791283844719 L 82.13524006349141,-9.706209671260453 A 112.66496871066956 112.66496871066956 0 0 1 86.84722402501576,-8.687176483667725 L 86.15050207596708,-5.769201410828034 L 93.77195285314983,-7.547821114694078 L 87.77618662374734,-12.577809914120648 L 87.07946467469866,-9.659834841280956 A 113.66496871066956 113.66496871066956 0 0 0 82.3256577400226,-10.68791283844719"/><text text-anchor="middle" pointer-events="none" font-size="8px" fill="#000000" x="59.130468857274394" y="-9.256987465956385" font-family="sans-serif">twowheeler</text></g><g class="relationship" transform="translate(-71.09806281089797 206.28551258155917) rotate(395.29253665548606)"><path class="outline" fill="#A5ABB6" stroke="none" d="M 32.5 0.5 L 54.24839105378096 0.5 L 54.24839105378096 -0.5 L 32.5 -0.5 Z M 73.58432855378096 0.5 L 95.33271960756193 0.5 L 95.33271960756193 3.5 L 102.33271960756193 0 L 95.33271960756193 -3.5 L 95.33271960756193 -0.5 L 73.58432855378096 -0.5 Z"/><text text-anchor="middle" pointer-events="none" font-size="8px" fill="#000000" x="63.91635980378096" y="3" font-family="sans-serif">trek</text></g><g class="relationship" transform="translate(38.95413618752451 284.18529289179514) rotate(332.86196005793886)"><path class="outline" fill="#A5ABB6" stroke="none" d="M 32.5 0.5 L 52.67124100117813 0.5 L 52.67124100117813 -0.5 L 32.5 -0.5 Z M 72.00717850117813 0.5 L 92.17841950235626 0.5 L 92.17841950235626 3.5 L 99.17841950235626 0 L 92.17841950235626 -3.5 L 92.17841950235626 -0.5 L 72.00717850117813 -0.5 Z"/><text text-anchor="middle" pointer-events="none" font-size="8px" fill="#000000" x="62.33920975117813" y="3" font-family="sans-serif">trek</text></g></g><g class="layer nodes"><g class="node" transform="translate(161.6212480765705,-6.782303008648153)"><circle class="outline" cx="0" cy="0" r="25" fill="#DE9BF9" stroke="#BF85D6" stroke-width="2px"/><text text-anchor="middle" pointer-events="none" font-family="sans-serif" dy="1.5625" font-size="25" fill="#FFFFFF"/><text text-anchor="middle" pointer-events="none" y="5" font-size="10px" fill="#FFFFFF" font-family="sans-serif"> Darjeeling</text></g><g class="node" transform="translate(61.11728902019175,10.424630163445478)"><circle class="outline" cx="0" cy="0" r="25" fill="#DE9BF9" stroke="#BF85D6" stroke-width="2px"/><text text-anchor="middle" pointer-events="none" font-family="sans-serif" dy="1.5625" font-size="25" fill="#FFFFFF"/><text text-anchor="middle" pointer-events="none" y="5" font-size="10px" fill="#FFFFFF" font-family="sans-serif"> Rimbik</text></g><g class="node" transform="translate(171.25492238472208,92.30861341756136)"><circle class="outline" cx="0" cy="0" r="32.5" fill="#FB95AF" stroke="#E0849B" stroke-width="2px"/><text text-anchor="middle" pointer-events="none" font-family="sans-serif" dy="2.03125" font-size="32.5" fill="#FFFFFF"/><text text-anchor="middle" pointer-events="none" y="5" font-size="10px" fill="#FFFFFF" font-family="sans-serif"> BhikeBhanja</text></g><g class="node" transform="translate(156.13609982405967,224.12204655158914)"><circle class="outline" cx="0" cy="0" r="32.5" fill="#FFD86E" stroke="#EDBA39" stroke-width="2px"/><text text-anchor="middle" pointer-events="none" font-family="sans-serif" dy="2.03125" font-size="32.5" fill="#604A0E"/><text text-anchor="middle" pointer-events="none" y="5" font-size="10px" fill="#604A0E" font-family="sans-serif"> Sandakphu</text></g><g class="node" transform="translate(121.41879883117227,-97.99287368784167)"><circle class="outline" cx="0" cy="0" r="32.5" fill="#FB95AF" stroke="#E0849B" stroke-width="2px"/><text text-anchor="middle" pointer-events="none" font-family="sans-serif" dy="2.03125" font-size="32.5" fill="#FFFFFF"/><text text-anchor="middle" pointer-events="none" y="5" font-size="10px" fill="#FFFFFF" font-family="sans-serif"> Tumbling</text></g><g class="node" transform="translate(238.07344676277148,-23.222155085336844)"><circle class="outline" cx="0" cy="0" r="32.5" fill="#FB95AF" stroke="#E0849B" stroke-width="2px"/><text text-anchor="middle" pointer-events="none" font-family="sans-serif" dy="2.03125" font-size="32.5" fill="#FFFFFF"/><text text-anchor="middle" pointer-events="none" y="5" font-size="10px" fill="#FFFFFF" font-family="sans-serif"> Gairibus</text></g><g class="node" transform="translate(-41.26732147645941,81.42189468878158)"><circle class="outline" cx="0" cy="0" r="32.5" fill="#FB95AF" stroke="#E0849B" stroke-width="2px"/><text text-anchor="middle" pointer-events="none" font-family="sans-serif" dy="2.03125" font-size="32.5" fill="#FFFFFF"/><text text-anchor="middle" pointer-events="none" y="5" font-size="10px" fill="#FFFFFF" font-family="sans-serif"> Sirikhola</text></g><g class="node" transform="translate(40.29692292498848,176.1400768018897)"><circle class="outline" cx="0" cy="0" r="32.5" fill="#FB95AF" stroke="#E0849B" stroke-width="2px"/><text text-anchor="middle" pointer-events="none" font-family="sans-serif" dy="2.03125" font-size="32.5" fill="#FFFFFF"/><text text-anchor="middle" pointer-events="none" y="5" font-size="10px" fill="#FFFFFF" font-family="sans-serif"> Gurdum</text></g><g class="node" transform="translate(-71.09806281089797,206.28551258155917)"><circle class="outline" cx="0" cy="0" r="32.5" fill="#FB95AF" stroke="#E0849B" stroke-width="2px"/><text text-anchor="middle" pointer-events="none" font-family="sans-serif" dy="2.03125" font-size="32.5" fill="#FFFFFF"/><text text-anchor="middle" pointer-events="none" y="5" font-size="10px" fill="#FFFFFF" font-family="sans-serif"> Rammam</text></g><g class="node" transform="translate(38.95413618752451,284.18529289179514)"><circle class="outline" cx="0" cy="0" r="32.5" fill="#FFD86E" stroke="#EDBA39" stroke-width="2px"/><text text-anchor="middle" pointer-events="none" font-family="sans-serif" dy="2.03125" font-size="32.5" fill="#604A0E"/><text text-anchor="middle" pointer-events="none" y="5" font-size="10px" fill="#604A0E" font-family="sans-serif"> Sabargram</text></g></g></svg>