<svg xmlns="http://www.w3.org/2000/svg" width="264.64288330078125" height="229.90660095214844" viewBox="-46.41118621826172 -27.089168548583984 264.64288330078125 229.90660095214844"><title>Neo4j Graph Visualization</title><desc>Created using Neo4j (http://www.neo4j.com/)</desc><g class="layer relationships"><g class="relationship" transform="translate(178.30565217849966 173.81742630476637) rotate(271.80084545785326)"><path class="outline" fill="#A5ABB6" stroke="none" d="M 21.40063509461097,12.933012701892217 L 21.90063509461097,12.06698729810778 A 57.86593868415979 57.86593868415979 0 0 0 39.50646216760157,18.700091876362706 L 39.31071415889969,19.680746105481845 A 58.86593868415979 58.86593868415979 0 0 1 21.40063509461097,12.933012701892217 Z M 58.71368274247147,20.289736152916404 L 58.579817922136904,19.29873655156593 A 57.86593868415979 57.86593868415979 0 0 0 76.56696109603317,13.78276848495496 L 75.23284172056782,11.095739364902858 L 83.05904893873229,11.117661462211185 L 78.34578692998696,17.365473978357763 L 77.01166755452161,14.67844485830566 A 58.86593868415979 58.86593868415979 0 0 1 58.71368274247147,20.289736152916404"/><text text-anchor="middle" pointer-events="none" font-size="8px" fill="#000000" x="49.00260723352167" y="23.290825902043117" font-family="sans-serif">trek</text></g><g class="relationship" transform="translate(181.61950209197354 68.41855060232126) rotate(212.01324367929874)"><path class="outline" fill="#A5ABB6" stroke="none" d="M 25 0.5 L 38.73758676480627 0.5 L 38.73758676480627 -0.5 L 25 -0.5 Z M 58.07352426480627 0.5 L 71.81111102961253 0.5 L 71.81111102961253 3.5 L 78.81111102961253 0 L 71.81111102961253 -3.5 L 71.81111102961253 -0.5 L 58.07352426480627 -0.5 Z"/><text text-anchor="middle" pointer-events="none" font-size="8px" fill="#000000" x="48.40555551480627" y="3" transform="rotate(180 48.40555551480627 0)" font-family="sans-serif">trek</text></g><g class="relationship" transform="translate(87.23596316791837 9.410830608933184) rotate(505.19576143879266)"><path class="outline" fill="#A5ABB6" stroke="none" d="M 32.5 0.5 L 45.988237642639895 0.5 L 45.988237642639895 -0.5 L 32.5 -0.5 Z M 65.32417514263989 0.5 L 78.81241278527979 0.5 L 78.81241278527979 3.5 L 85.81241278527979 0 L 78.81241278527979 -3.5 L 78.81241278527979 -0.5 L 65.32417514263989 -0.5 Z"/><text text-anchor="middle" pointer-events="none" font-size="8px" fill="#000000" x="55.656206392639895" y="3" transform="rotate(180 55.656206392639895 0)" font-family="sans-serif">trek</text></g><g class="relationship" transform="translate(178.30565217849966 173.81742630476637) rotate(271.80084545785326)"><path class="outline" fill="#A5ABB6" stroke="none" d="M 25 0.5 L 38.21961976124992 0.5 L 38.21961976124992 -0.5 L 25 -0.5 Z M 60.23133851124992 0.5 L 73.45095827249985 0.5 L 73.45095827249985 3.5 L 80.45095827249985 0 L 73.45095827249985 -3.5 L 73.45095827249985 -0.5 L 60.23133851124992 -0.5 Z"/><text text-anchor="middle" pointer-events="none" font-size="8px" fill="#000000" x="49.22547913624992" y="3" font-family="sans-serif">road</text></g><g class="relationship" transform="translate(178.30565217849966 173.81742630476637) rotate(271.80084545785326)"><path class="outline" fill="#A5ABB6" stroke="none" d="M 21.40063509461097,-12.933012701892217 L 21.90063509461097,-12.06698729810778 A 57.86593868415979 57.86593868415979 0 0 1 22.554168680305274,-12.438665370192652 L 22.065462605549644,-13.311113862939905 A 58.86593868415979 58.86593868415979 0 0 0 21.40063509461097,-12.933012701892217 Z M 76.32443747049805,-15.01410974908142 L 75.89140550662204,-14.112731183626444 A 57.86593868415979 57.86593868415979 0 0 1 76.56696109603317,-13.78276848495496 L 75.23284172056782,-11.095739364902858 L 83.05904893873229,-11.117661462211185 L 78.34578692998696,-17.365473978357763 L 77.01166755452161,-14.67844485830566 A 58.86593868415979 58.86593868415979 0 0 0 76.32443747049805,-15.01410974908142"/><text text-anchor="middle" pointer-events="none" font-size="8px" fill="#000000" x="49.002607233521665" y="-17.290825902043117" font-family="sans-serif">PublicTrans…</text></g></g><g class="layer nodes"><g class="node" transform="translate(178.30565217849966,173.81742630476637)"><circle class="outline" cx="0" cy="0" r="25" fill="#DE9BF9" stroke="#BF85D6" stroke-width="2px"/><text text-anchor="middle" pointer-events="none" font-family="sans-serif" dy="1.5625" font-size="25" fill="#FFFFFF"/><text text-anchor="middle" pointer-events="none" y="5" font-size="10px" fill="#FFFFFF" font-family="sans-serif"> Darjeeling</text></g><g class="node" transform="translate(181.61950209197354,68.41855060232126)"><circle class="outline" cx="0" cy="0" r="25" fill="#DE9BF9" stroke="#BF85D6" stroke-width="2px"/><text text-anchor="middle" pointer-events="none" font-family="sans-serif" dy="1.5625" font-size="25" fill="#FFFFFF"/><text text-anchor="middle" pointer-events="none" y="5" font-size="10px" fill="#FFFFFF" font-family="sans-serif"> Rimbik</text></g><g class="node" transform="translate(87.23596316791837,9.410830608933184)"><circle class="outline" cx="0" cy="0" r="32.5" fill="#FB95AF" stroke="#E0849B" stroke-width="2px"/><text text-anchor="middle" pointer-events="none" font-family="sans-serif" dy="2.03125" font-size="32.5" fill="#FFFFFF"/><text text-anchor="middle" pointer-events="none" y="5" font-size="10px" fill="#FFFFFF" font-family="sans-serif"> BhikeBhanja</text></g><g class="node" transform="translate(-9.911185653881235,76.94051663566927)"><circle class="outline" cx="0" cy="0" r="32.5" fill="#FFD86E" stroke="#EDBA39" stroke-width="2px"/><text text-anchor="middle" pointer-events="none" font-family="sans-serif" dy="2.03125" font-size="32.5" fill="#604A0E"/><text text-anchor="middle" pointer-events="none" y="5" font-size="10px" fill="#604A0E" font-family="sans-serif"> Sandakphu</text></g></g></svg>